<svg xmlns="http://www.w3.org/2000/svg" viewBox="0 0 720 240" role="img" aria-label="Anonimal">
  <g transform="translate(40,45) scale(2.34375)">
    <rect width="64" height="64" rx="15" fill="#4a4e7c"/>
    <path d="M12 26 C12 22 16 21 20 21 L44 21 C48 21 52 22 52 26 C52 32 50 40 42 40 C36 40 34 35 32 35 C30 35 28 40 22 40 C14 40 12 32 12 26 Z" fill="#ffffff"/>
    <ellipse cx="23" cy="29" rx="4" ry="3.1" fill="#4a4e7c" transform="rotate(-12 23 29)"/>
    <ellipse cx="41" cy="29" rx="4" ry="3.1" fill="#4a4e7c" transform="rotate(12 41 29)"/>
  </g>
  <text x="228" y="151"
        font-family="'Inter Variable','Inter',-apple-system,BlinkMacSystemFont,'Segoe UI',Roboto,Helvetica,Arial,sans-serif"
        font-size="86" font-weight="700" letter-spacing="-0.03em" fill="#16161a">Anonimal</text>
</svg>
